HIERARCHY
ROOT newVegas:Hips
{
	OFFSET 0.000000 96.479958 0.000000
	CHANNELS 6 Xposition Yposition Zposition Xrotation Yrotation Zrotation
	JOINT newVegas:Pelvis
	{
		OFFSET 0.000000 0.000000 0.000000
		CHANNELS 3 Xrotation Yrotation Zrotation
		JOINT newVegas:LeftUpLeg
		{
			OFFSET 18.735201 -5.666702 -4.541200
			CHANNELS 3 Xrotation Yrotation Zrotation
			JOINT newVegas:LeftLeg
			{
				OFFSET -0.021200 -31.938179 0.493100
				CHANNELS 3 Xrotation Yrotation Zrotation
				JOINT newVegas:LeftFoot
				{
					OFFSET 0.021200 -31.938179 -4.336299
					CHANNELS 3 Xrotation Yrotation Zrotation
					JOINT newVegas:LeftToeBase
					{
						OFFSET 0.943001 -26.722000 15.023500
						CHANNELS 3 Xrotation Yrotation Zrotation
						End Site
						{
							OFFSET 0.000000 30.670183 0.000000
						}
					}
				}
				JOINT newVegas:Left_PantLeg
				{
					OFFSET 0.663870 -9.044666 -1.108900
					CHANNELS 3 Xrotation Yrotation Zrotation
					End Site
					{
						OFFSET 1.415995 20.635357 0.000000
					}
				}
			}
		}
		JOINT newVegas:RightUpLeg
		{
			OFFSET -18.735201 -5.666702 -4.541200
			CHANNELS 3 Xrotation Yrotation Zrotation
			JOINT newVegas:RightLeg
			{
				OFFSET 0.018946 -31.938133 0.493100
				CHANNELS 3 Xrotation Yrotation Zrotation
				JOINT newVegas:RightFoot
				{
					OFFSET -0.018946 -31.938126 -4.336299
					CHANNELS 3 Xrotation Yrotation Zrotation
					JOINT newVegas:RightToeBase
					{
						OFFSET -0.943001 -26.722004 15.023500
						CHANNELS 3 Xrotation Yrotation Zrotation
						End Site
						{
							OFFSET 0.000000 30.670187 0.000000
						}
					}
				}
				JOINT newVegas:Right_PantLeg
				{
					OFFSET -0.661674 -9.044716 -1.108900
					CHANNELS 3 Xrotation Yrotation Zrotation
					End Site
					{
						OFFSET -1.415958 20.635269 0.000000
					}
				}
			}
		}
	}
	JOINT newVegas:Spine
	{
		OFFSET 0.000000 10.199997 -0.299500
		CHANNELS 3 Xrotation Yrotation Zrotation
		JOINT newVegas:Spine1
		{
			OFFSET 0.000000 11.900002 -1.516600
			CHANNELS 3 Xrotation Yrotation Zrotation
			JOINT newVegas:Spine2
			{
				OFFSET 0.000000 13.600006 -2.842500
				CHANNELS 3 Xrotation Yrotation Zrotation
				JOINT newVegas:Neck
				{
					OFFSET 0.000000 9.624100 -2.890100
					CHANNELS 3 Xrotation Yrotation Zrotation
					JOINT newVegas:Head
					{
						OFFSET 0.000000 14.068802 -1.351900
						CHANNELS 3 Xrotation Yrotation Zrotation
						JOINT newVegas:Hair_Back
						{
							OFFSET 0.000000 3.231903 -17.524799
							CHANNELS 3 Xrotation Yrotation Zrotation
							End Site
							{
								OFFSET 0.000000 19.849884 0.000000
							}
						}
						JOINT newVegas:Hair_Front
						{
							OFFSET 0.000000 31.260406 4.573800
							CHANNELS 3 Xrotation Yrotation Zrotation
							JOINT newVegas:Hair_Front1
							{
								OFFSET 0.000000 2.284103 11.993300
								CHANNELS 3 Xrotation Yrotation Zrotation
								JOINT newVegas:Hair_Front2
								{
									OFFSET 0.000000 2.284103 11.993300
									CHANNELS 3 Xrotation Yrotation Zrotation
									End Site
									{
										OFFSET 0.000000 12.208862 0.000000
									}
								}
							}
						}
						JOINT newVegas:Jowel
						{
							OFFSET 0.000000 -7.458206 6.864100
							CHANNELS 3 Xrotation Yrotation Zrotation
							End Site
							{
								OFFSET 0.000000 19.849884 0.000000
							}
						}
					}
				}
				JOINT newVegas:LeftShoulder
				{
					OFFSET 15.263000 10.923401 -0.547700
					CHANNELS 3 Xrotation Yrotation Zrotation
					JOINT newVegas:LeftArm
					{
						OFFSET 25.438599 -2.830597 -13.032500
						CHANNELS 3 Xrotation Yrotation Zrotation
						JOINT newVegas:LeftForeArm
						{
							OFFSET 29.960503 0.000000 0.000000
							CHANNELS 3 Xrotation Yrotation Zrotation
							JOINT newVegas:LeftHand
							{
								OFFSET 27.849251 0.000000 0.000000
								CHANNELS 3 Xrotation Yrotation Zrotation
								JOINT newVegas:LeftHandThumb1
								{
									OFFSET 4.487587 -3.305161 6.305391
									CHANNELS 3 Xrotation Yrotation Zrotation
									JOINT newVegas:LeftHandThumb2
									{
										OFFSET 5.480453 -3.164139 3.164143
										CHANNELS 3 Xrotation Yrotation Zrotation
										JOINT newVegas:LeftHandThumb3
										{
											OFFSET 5.159721 -2.978973 2.978967
											CHANNELS 3 Xrotation Yrotation Zrotation
											End Site
											{
												OFFSET 2.494507 5.926697 1.738678
											}
										}
									}
								}
								JOINT newVegas:LeftHandIndex1
								{
									OFFSET 18.578728 -0.527832 5.208049
									CHANNELS 3 Xrotation Yrotation Zrotation
									JOINT newVegas:LeftHandIndex2
									{
										OFFSET 3.192009 0.000000 0.000000
										CHANNELS 3 Xrotation Yrotation Zrotation
										JOINT newVegas:LeftHandIndex3
										{
											OFFSET 3.835129 0.000000 0.000000
											CHANNELS 3 Xrotation Yrotation Zrotation
											End Site
											{
												OFFSET -0.034599 3.816971 0.371180
											}
										}
									}
								}
								JOINT newVegas:LeftHandMiddle1
								{
									OFFSET 18.476105 0.000000 0.000000
									CHANNELS 3 Xrotation Yrotation Zrotation
									JOINT newVegas:LeftHandMiddle2
									{
										OFFSET 3.324875 0.000000 0.000000
										CHANNELS 3 Xrotation Yrotation Zrotation
										JOINT newVegas:LeftHandMiddle3
										{
											OFFSET 4.596550 0.000000 0.000000
											CHANNELS 3 Xrotation Yrotation Zrotation
											End Site
											{
												OFFSET 0.057701 4.578827 0.399218
											}
										}
									}
								}
								JOINT newVegas:LeftHandRing1
								{
									OFFSET 17.732719 0.121887 -4.201567
									CHANNELS 3 Xrotation Yrotation Zrotation
									JOINT newVegas:LeftHandRing2
									{
										OFFSET 2.733170 0.000000 0.000000
										CHANNELS 3 Xrotation Yrotation Zrotation
										JOINT newVegas:LeftHandRing3
										{
											OFFSET 3.178268 0.000000 0.000000
											CHANNELS 3 Xrotation Yrotation Zrotation
											End Site
											{
												OFFSET 0.119102 3.170624 0.185394
											}
										}
									}
								}
								JOINT newVegas:LeftHandPinky1
								{
									OFFSET 15.989624 -0.606689 -7.535461
									CHANNELS 3 Xrotation Yrotation Zrotation
									JOINT newVegas:LeftHandPinky2
									{
										OFFSET 2.538986 0.000000 0.000000
										CHANNELS 3 Xrotation Yrotation Zrotation
										JOINT newVegas:LeftHandPinky3
										{
											OFFSET 2.593102 0.000000 0.000000
											CHANNELS 3 Xrotation Yrotation Zrotation
											End Site
											{
												OFFSET -0.150902 2.584198 0.152708
											}
										}
									}
								}
							}
							JOINT newVegas:Left_Sleeve
							{
								OFFSET 0.267448 -0.649796 0.577675
								CHANNELS 3 Xrotation Yrotation Zrotation
								End Site
								{
									OFFSET 0.000000 15.991241 0.000000
								}
							}
							JOINT newVegas:Left_CapeC
							{
								OFFSET 15.715958 -8.608795 -6.935905
								CHANNELS 3 Xrotation Yrotation Zrotation
								JOINT newVegas:Left_CapeC1
								{
									OFFSET 0.000000 -8.688499 0.000000
									CHANNELS 3 Xrotation Yrotation Zrotation
									End Site
									{
										OFFSET 0.000000 8.688499 0.000000
									}
								}
							}
						}
						JOINT newVegas:Left_CapeB
						{
							OFFSET 26.118385 -8.608795 -7.079235
							CHANNELS 3 Xrotation Yrotation Zrotation
							JOINT newVegas:Left_CapeB1
							{
								OFFSET 0.000000 -8.688499 0.000000
								CHANNELS 3 Xrotation Yrotation Zrotation
								End Site
								{
									OFFSET 0.000000 8.688499 0.000000
								}
							}
						}
						JOINT newVegas:Left_CapeA
						{
							OFFSET 5.115639 -8.608795 -10.395809
							CHANNELS 3 Xrotation Yrotation Zrotation
							JOINT newVegas:Left_CapeA1
							{
								OFFSET 0.000000 -8.688499 0.000000
								CHANNELS 3 Xrotation Yrotation Zrotation
								End Site
								{
									OFFSET 0.000000 8.688499 0.000000
								}
							}
						}
					}
				}
				JOINT newVegas:RightShoulder
				{
					OFFSET -15.263000 10.923401 -0.547700
					CHANNELS 3 Xrotation Yrotation Zrotation
					JOINT newVegas:RightArm
					{
						OFFSET -25.438599 -2.830597 -13.032500
						CHANNELS 3 Xrotation Yrotation Zrotation
						JOINT newVegas:RightForeArm
						{
							OFFSET -29.960503 0.000000 0.000000
							CHANNELS 3 Xrotation Yrotation Zrotation
							JOINT newVegas:RightHand
							{
								OFFSET -27.849251 0.000000 0.000000
								CHANNELS 3 Xrotation Yrotation Zrotation
								JOINT newVegas:RightHandThumb1
								{
									OFFSET -4.487587 -3.305161 6.305391
									CHANNELS 3 Xrotation Yrotation Zrotation
									JOINT newVegas:RightHandThumb2
									{
										OFFSET -5.480453 -3.164139 3.164143
										CHANNELS 3 Xrotation Yrotation Zrotation
										JOINT newVegas:RightHandThumb3
										{
											OFFSET -5.159721 -2.978973 2.978967
											CHANNELS 3 Xrotation Yrotation Zrotation
											End Site
											{
												OFFSET -2.494507 5.926697 1.738678
											}
										}
									}
								}
								JOINT newVegas:RightHandIndex1
								{
									OFFSET -18.578728 -0.527832 5.208049
									CHANNELS 3 Xrotation Yrotation Zrotation
									JOINT newVegas:RightHandIndex2
									{
										OFFSET -3.192009 0.000000 0.000000
										CHANNELS 3 Xrotation Yrotation Zrotation
										JOINT newVegas:RightHandIndex3
										{
											OFFSET -3.835129 0.000000 0.000000
											CHANNELS 3 Xrotation Yrotation Zrotation
											End Site
											{
												OFFSET 0.034599 3.816971 0.371180
											}
										}
									}
								}
								JOINT newVegas:RightHandMiddle1
								{
									OFFSET -18.476105 0.000000 0.000000
									CHANNELS 3 Xrotation Yrotation Zrotation
									JOINT newVegas:RightHandMiddle2
									{
										OFFSET -3.324875 0.000000 0.000000
										CHANNELS 3 Xrotation Yrotation Zrotation
										JOINT newVegas:RightHandMiddle3
										{
											OFFSET -4.596550 0.000000 0.000000
											CHANNELS 3 Xrotation Yrotation Zrotation
											End Site
											{
												OFFSET -0.057701 4.578827 0.399218
											}
										}
									}
								}
								JOINT newVegas:RightHandRing1
								{
									OFFSET -17.732719 0.121887 -4.201567
									CHANNELS 3 Xrotation Yrotation Zrotation
									JOINT newVegas:RightHandRing2
									{
										OFFSET -2.733170 0.000000 0.000000
										CHANNELS 3 Xrotation Yrotation Zrotation
										JOINT newVegas:RightHandRing3
										{
											OFFSET -3.178268 0.000000 0.000000
											CHANNELS 3 Xrotation Yrotation Zrotation
											End Site
											{
												OFFSET -0.119102 3.170624 0.185394
											}
										}
									}
								}
								JOINT newVegas:RightHandPinky1
								{
									OFFSET -15.989624 -0.606689 -7.535461
									CHANNELS 3 Xrotation Yrotation Zrotation
									JOINT newVegas:RightHandPinky2
									{
										OFFSET -2.538986 0.000000 0.000000
										CHANNELS 3 Xrotation Yrotation Zrotation
										JOINT newVegas:RightHandPinky3
										{
											OFFSET -2.593102 0.000000 0.000000
											CHANNELS 3 Xrotation Yrotation Zrotation
											End Site
											{
												OFFSET 0.150902 2.584198 0.152708
											}
										}
									}
								}
							}
							JOINT newVegas:Right_CapeC
							{
								OFFSET -15.715958 -8.608795 -6.935905
								CHANNELS 3 Xrotation Yrotation Zrotation
								JOINT newVegas:Right_CapeC1
								{
									OFFSET 0.000000 -8.688499 0.000000
									CHANNELS 3 Xrotation Yrotation Zrotation
									End Site
									{
										OFFSET 0.000000 8.688499 0.000000
									}
								}
							}
							JOINT newVegas:Right_Sleeve
							{
								OFFSET -0.267448 -0.649994 0.577675
								CHANNELS 3 Xrotation Yrotation Zrotation
								End Site
								{
									OFFSET 0.000000 15.991302 0.000000
								}
							}
						}
						JOINT newVegas:Right_CapeA
						{
							OFFSET -5.115540 -8.608795 -10.395824
							CHANNELS 3 Xrotation Yrotation Zrotation
							JOINT newVegas:Right_CapeA1
							{
								OFFSET 0.000000 -8.688499 0.000000
								CHANNELS 3 Xrotation Yrotation Zrotation
								End Site
								{
									OFFSET 0.000000 8.688499 0.000000
								}
							}
						}
						JOINT newVegas:Right_CapeB
						{
							OFFSET -26.118187 -8.608795 -7.079266
							CHANNELS 3 Xrotation Yrotation Zrotation
							JOINT newVegas:Right_CapeB1
							{
								OFFSET 0.000000 -8.688499 0.000000
								CHANNELS 3 Xrotation Yrotation Zrotation
								End Site
								{
									OFFSET 0.000000 8.688499 0.000000
								}
							}
						}
					}
				}
				JOINT newVegas:Left_Collar
				{
					OFFSET 18.625099 8.655502 8.828100
					CHANNELS 3 Xrotation Yrotation Zrotation
					JOINT newVegas:Left_Collar1
					{
						OFFSET 14.783401 10.540405 -1.259500
						CHANNELS 3 Xrotation Yrotation Zrotation
						End Site
						{
							OFFSET 0.000000 18.199875 0.000000
						}
					}
				}
				JOINT newVegas:Collar_Back
				{
					OFFSET 0.000000 15.630707 -20.132601
					CHANNELS 3 Xrotation Yrotation Zrotation
					End Site
					{
						OFFSET 0.000000 22.523010 0.000000
					}
				}
				JOINT newVegas:Left_Peck
				{
					OFFSET 17.239599 -5.132599 25.482599
					CHANNELS 3 Xrotation Yrotation Zrotation
					End Site
					{
						OFFSET 0.000000 22.523010 0.000000
					}
				}
				JOINT newVegas:Right_Peck
				{
					OFFSET -17.239599 -5.132202 25.482599
					CHANNELS 3 Xrotation Yrotation Zrotation
					End Site
					{
						OFFSET 0.000000 22.523010 0.000000
					}
				}
				JOINT newVegas:Right_Collar
				{
					OFFSET -18.625099 8.655792 8.828100
					CHANNELS 3 Xrotation Yrotation Zrotation
					JOINT newVegas:Right_Collar1
					{
						OFFSET -14.783401 10.539993 -1.259500
						CHANNELS 3 Xrotation Yrotation Zrotation
						End Site
						{
							OFFSET 0.000000 18.199631 0.000000
						}
					}
				}
			}
		}
		JOINT newVegas:Belly
		{
			OFFSET 0.000000 -6.540398 9.014299
			CHANNELS 3 Xrotation Yrotation Zrotation
			End Site
			{
				OFFSET 0.000000 11.566666 0.000000
			}
		}
	}
	JOINT newVegas:ElvisFacialAnim_Joint
	{
		OFFSET 1.000000 -95.330101 -8.825800
		CHANNELS 3 Xrotation Yrotation Zrotation
		End Site
		{
			OFFSET 0.000000 35.315800 0.000000
		}
	}
}
MOTION
Frames: 4
Frame Time: 0.016667
-1.088635 85.001854 -6.558858 4.966453 -63.923768 6.593133 0.000000 0.000002 -0.000000 -49.099628 5.972742 37.675395 67.296133 2.593549 1.590392 0.242106 4.262801 -17.769161 0.000001 0.000001 0.000000 0.000000 0.000003 -0.000002 -36.422783 -14.403607 -36.675234 49.685822 8.446405 -0.187028 -17.548658 -0.394294 18.447123 0.000000 -0.000000 0.000000 0.000000 0.000000 0.000001 6.021683 -0.287545 -10.316993 2.022906 1.037168 -3.225558 1.954056 1.061962 -3.259242 -0.078687 0.314077 0.629058 -0.078675 0.314061 0.629046 0.000001 -0.000002 0.000002 -0.078680 0.314067 0.629060 -0.078684 0.314082 0.629050 0.000000 -0.000000 0.000001 0.000001 -0.000002 0.000002 8.323257 13.077841 -7.024610 9.541090 6.100878 -50.685625 -17.718202 -52.472570 -11.271232 -68.344328 2.082867 12.151077 40.109893 -15.297216 -0.360561 5.639843 28.097967 11.338784 -0.000001 -0.000003 -0.000005 6.882205 2.840064 -61.140527 8.247967 7.640073 -89.897809 0.000002 -0.000001 -0.000002 -2.345577 4.688874 -62.655320 8.754103 9.897127 -87.051314 0.000001 0.000000 -0.000000 -9.042522 10.045734 -60.766267 8.524067 9.508833 -66.892988 0.000002 -0.000001 -0.000001 -17.946967 14.755060 -51.485887 8.868391 8.667009 -84.812037 0.000001 -0.000002 0.000001 -0.000001 0.000000 -0.000002 -0.000001 0.000000 -0.000002 -0.000002 0.000001 -0.000002 -0.000002 -0.000002 -0.000000 -0.000002 -0.000003 -0.000001 -0.000002 -0.000002 -0.000000 -0.000003 -0.000003 -0.000001 -1.250383 0.958181 0.166084 14.011437 15.962869 54.635909 -3.654933 37.198723 3.123700 -40.713863 8.548960 -33.022247 -1.061796 -5.152540 8.081562 1.452012 -24.614569 -6.362843 -0.000000 0.000002 0.000003 0.188939 0.142999 1.399184 -0.095001 -0.785868 10.671235 -0.000001 0.000000 0.000001 0.348253 -5.918446 2.583754 1.609632 -4.842095 28.629267 0.000001 -0.000002 -0.000001 0.965515 -11.985700 1.668196 1.794838 -3.771885 26.865470 -0.000001 0.000002 -0.000001 2.078722 -19.147954 10.710187 3.052573 -1.679794 16.780183 -0.000001 0.000002 -0.000001 0.000000 -0.000001 -0.000000 0.000000 -0.000001 0.000001 0.000000 -0.000000 0.000001 -0.000003 -0.000002 -0.000000 -0.000003 -0.000001 -0.000000 -0.000003 -0.000002 -0.000000 -0.000003 -0.000001 -0.000000 -0.000000 -0.000001 0.000001 -0.000000 -0.000001 0.000001 -0.000000 -0.000001 0.000001 -0.000000 -0.000001 0.000001 -0.000000 -0.000001 0.000001 -0.000000 -0.000001 0.000001 -0.000000 -0.000001 0.000001 0.000001 -0.000001 0.000000 0.000000 0.000002 -0.000000 
-1.350265 84.585770 -6.359475 4.584729 -66.128314 6.247201 0.000000 0.000000 -0.000000 -46.575415 4.362314 36.525434 65.365689 0.918502 1.496346 -4.428050 3.717634 -17.934794 0.000001 -0.000001 -0.000002 -0.000000 -0.000001 0.000001 -36.813743 -12.397805 -35.863790 50.938745 8.779423 -0.410808 -17.753077 -0.269583 18.520674 0.000000 -0.000000 -0.000000 0.000000 -0.000000 -0.000002 6.570298 0.156658 -10.456676 2.213361 1.252812 -3.503125 2.134165 1.287681 -3.544562 -0.138887 0.297561 0.617079 -0.138879 0.297541 0.617077 0.000000 -0.000001 0.000001 -0.138888 0.297543 0.617083 -0.138899 0.297604 0.617077 0.000000 0.000001 0.000001 0.000000 -0.000001 0.000000 7.748753 12.716427 -7.899215 3.768028 9.179790 -48.813832 -14.713867 -50.244535 -8.593132 -62.145289 -0.745702 11.047853 40.109907 -15.297216 -0.360533 5.639826 28.097933 11.338787 0.000000 -0.000000 -0.000005 6.882187 2.840052 -61.140479 8.247976 7.640100 -89.897802 0.000000 0.000002 -0.000001 -2.345595 4.688867 -62.655251 8.754088 9.897158 -87.051253 0.000000 -0.000002 0.000002 -9.042503 10.045728 -60.766267 8.524053 9.508821 -66.892960 0.000004 -0.000004 -0.000005 -17.946966 14.755039 -51.485911 8.868406 8.667032 -84.811989 0.000002 -0.000003 0.000001 0.000001 -0.000001 -0.000000 0.000001 -0.000001 -0.000000 -0.000000 -0.000000 -0.000000 0.000002 0.000002 0.000002 0.000002 0.000001 0.000002 0.000002 0.000002 0.000002 0.000000 0.000003 0.000002 -1.130644 1.066987 0.184877 14.688274 15.673575 54.960019 -0.682692 33.923456 1.183326 -47.488806 7.229288 -35.346185 -1.746937 -5.633441 9.467133 1.769569 -24.313728 -7.223193 0.000003 0.000002 -0.000004 0.055244 0.373338 0.873920 -0.045534 -0.390800 7.572040 -0.000001 -0.000004 -0.000000 0.374760 -5.832935 1.407353 1.498678 -4.485145 26.058305 0.000001 0.000002 -0.000002 1.026393 -11.929866 2.279478 1.646433 -3.560622 25.559934 -0.000001 -0.000003 -0.000003 2.327905 -19.238770 13.973350 3.124602 -1.790140 17.283088 -0.000001 0.000000 -0.000003 0.000002 0.000001 0.000003 0.000001 -0.000001 0.000003 0.000002 0.000001 0.000004 -0.000002 0.000003 0.000003 -0.000002 0.000004 0.000003 -0.000002 0.000003 0.000003 -0.000002 0.000004 0.000004 0.000001 -0.000001 -0.000000 0.000001 -0.000001 -0.000000 0.000001 -0.000001 -0.000000 0.000001 -0.000001 -0.000000 0.000001 -0.000001 -0.000000 0.000001 -0.000001 -0.000000 0.000001 -0.000001 -0.000000 -0.000000 0.000001 -0.000000 0.000000 0.000000 -0.000000 
-1.547224 84.156494 -6.003370 4.494283 -67.977540 6.227119 0.000000 0.000001 -0.000000 -44.916533 3.969263 35.965013 63.011439 -0.165993 1.449810 -7.976569 1.848846 -16.920187 -0.000000 -0.000002 -0.000001 0.000000 -0.000003 0.000000 -37.150813 -10.378264 -35.230437 51.976841 8.924538 -0.645452 -17.886732 -0.293520 18.903804 0.000000 -0.000000 -0.000000 0.000002 -0.000000 -0.000000 7.429356 0.336238 -10.362300 2.596582 1.518485 -3.801022 2.492150 1.563028 -3.857250 -0.181395 0.254488 0.584179 -0.181391 0.254490 0.584170 -0.000000 -0.000001 -0.000001 -0.181392 0.254486 0.584175 -0.181396 0.254480 0.584178 0.000000 -0.000001 0.000000 -0.000000 -0.000001 -0.000000 7.224905 11.907284 -8.568571 -2.264324 11.705501 -47.207553 -12.391271 -47.836333 -6.593939 -56.577203 -1.496998 9.008503 40.109931 -15.297199 -0.360515 5.639806 28.097933 11.338806 -0.000000 -0.000001 -0.000001 6.882218 2.840046 -61.140507 8.247941 7.640071 -89.897850 0.000000 -0.000002 0.000002 -2.345568 4.688824 -62.655258 8.754064 9.897163 -87.051287 0.000000 -0.000004 0.000001 -9.042528 10.045741 -60.766274 8.524110 9.508820 -66.893015 0.000001 -0.000004 -0.000001 -17.946961 14.755056 -51.485911 8.868407 8.667017 -84.811989 -0.000000 0.000002 -0.000001 -0.000000 0.000001 -0.000002 -0.000000 0.000001 -0.000002 -0.000001 0.000001 -0.000002 -0.000002 -0.000002 -0.000001 -0.000001 -0.000003 -0.000000 -0.000002 -0.000002 -0.000001 -0.000003 -0.000001 -0.000001 -1.065462 1.265485 0.198266 14.656628 14.472742 55.165983 -4.528757 30.845933 3.374036 -47.604001 6.503116 -36.543305 -2.346126 -6.100526 10.731431 2.076079 -24.043439 -8.030815 0.000001 -0.000000 -0.000006 -0.054790 0.532075 0.738695 0.019779 -0.087319 5.078590 -0.000002 -0.000001 -0.000002 0.381873 -5.810067 1.088495 1.432673 -4.204256 24.052139 0.000001 -0.000000 -0.000000 1.176598 -11.785458 3.841127 1.607189 -3.502546 25.206250 -0.000002 -0.000003 0.000002 2.615602 -19.318239 17.991220 3.315356 -2.067384 18.569830 -0.000000 0.000003 -0.000000 0.000000 0.000002 0.000001 -0.000000 0.000002 0.000003 0.000000 0.000002 0.000003 -0.000001 -0.000001 0.000000 -0.000001 0.000000 -0.000000 -0.000001 -0.000001 0.000000 -0.000001 -0.000000 -0.000000 0.000000 -0.000001 0.000001 0.000000 -0.000001 0.000001 0.000000 -0.000001 0.000001 0.000000 -0.000001 0.000001 0.000000 -0.000001 0.000001 0.000000 -0.000001 0.000001 0.000000 -0.000001 0.000001 0.000001 0.000001 -0.000001 0.000000 0.000001 -0.000000 
-1.624478 83.700882 -5.489132 4.579083 -69.029396 6.350045 0.000000 -0.000002 -0.000000 -44.016341 3.933500 35.308502 60.812897 -3.027774 1.269651 -11.639556 0.459063 -15.243913 0.000001 -0.000001 -0.000001 0.000001 -0.000000 0.000002 -37.207162 -8.615948 -34.860579 52.789747 8.751686 -0.896928 -18.072283 -0.586032 19.676170 -0.000000 -0.000000 -0.000000 -0.000001 0.000000 0.000001 8.346142 -0.027292 -10.169452 3.018321 1.678069 -4.067148 2.881013 1.725171 -4.151145 -0.192070 0.218194 0.564955 -0.192062 0.218229 0.564940 0.000001 -0.000000 -0.000000 -0.192005 0.218231 0.564947 -0.192070 0.218230 0.564941 -0.000001 -0.000001 0.000001 0.000001 -0.000000 -0.000000 6.677905 10.753158 -8.549235 -8.021116 14.587814 -46.182696 -13.712509 -45.464625 -7.520423 -48.869963 -1.339827 7.345870 40.109924 -15.297233 -0.360554 5.639817 28.097964 11.338835 0.000001 -0.000002 -0.000008 6.882205 2.840016 -61.140507 8.247976 7.640107 -89.897864 -0.000001 -0.000002 0.000004 -2.345549 4.688821 -62.655279 8.754072 9.897132 -87.051301 -0.000001 -0.000000 -0.000001 -9.042516 10.045694 -60.766240 8.524081 9.508838 -66.892967 -0.000001 0.000003 0.000001 -17.946974 14.755031 -51.485857 8.868427 8.667052 -84.811955 0.000003 -0.000003 -0.000002 0.000002 0.000002 -0.000003 0.000002 0.000002 -0.000003 0.000001 0.000002 -0.000003 0.000000 0.000001 0.000001 0.000001 0.000001 0.000003 0.000000 0.000001 0.000001 -0.000001 0.000001 0.000001 -0.941223 1.430430 0.218051 14.222958 13.758795 55.030090 -5.122354 28.405602 3.551388 -49.977782 5.601588 -36.818230 -2.731561 -6.426714 11.574425 2.364079 -23.806187 -8.771056 0.000003 0.000000 -0.000002 -0.124213 0.615516 0.793041 0.070684 0.090717 3.555004 -0.000000 -0.000001 -0.000000 0.372811 -5.839089 1.492317 1.402473 -4.036311 22.855968 -0.000001 0.000002 -0.000002 1.383452 -11.568627 6.136992 1.656980 -3.576014 25.654132 -0.000000 0.000002 0.000001 2.906244 -19.368588 22.456796 3.612587 -2.462262 20.466626 0.000002 0.000007 -0.000003 -0.000001 0.000003 0.000001 -0.000002 0.000001 0.000001 -0.000002 0.000002 0.000002 0.000001 0.000003 -0.000000 0.000001 0.000003 0.000001 0.000001 0.000003 -0.000000 0.000001 0.000003 0.000003 -0.000000 0.000000 -0.000000 -0.000000 0.000000 -0.000000 -0.000000 0.000000 -0.000000 -0.000000 0.000000 -0.000000 -0.000000 0.000000 -0.000000 -0.000000 0.000000 -0.000000 -0.000000 0.000000 -0.000000 0.000001 0.000002 -0.000000 0.000000 -0.000002 -0.000000 
